<svg id="Capa_1" enable-background="new 0 0 512 512" height="512" viewBox="0 0 512 512" width="512" xmlns="http://www.w3.org/2000/svg"><g><g><g><g><g><path d="m219.748 297.897v214.103h-91.284c-5.69 0-10.302-4.612-10.302-10.302v-86.731c0-59.647 44.174-108.983 101.586-117.07z" fill="#0d5f7f"/><path d="m393.838 414.967v86.731c0 5.69-4.612 10.302-10.302 10.302h-91.284v-214.103c57.422 8.098 101.586 57.423 101.586 117.07z" fill="#0d5f7f"/><path d="m393.838 414.978v86.721c0 5.69-4.612 10.302-10.302 10.302h-19.656v-97.022c0-48.758-29.504-90.625-71.629-108.705v-8.375c57.423 8.096 101.587 57.421 101.587 117.079z" fill="#094c66"/><path d="m302.558 299.809v212.189h-93.115v-212.189c8.667-2.023 17.693-3.091 26.965-3.091h39.185c9.272 0 18.298 1.068 26.965 3.091z" fill="#edc1bb"/><g><g><g><path d="m232.063 512v-148.108c0-4.267 3.459-7.726 7.726-7.726s7.726 3.459 7.726 7.726v148.108z" fill="#d6a59d"/></g><g><path d="m264.484 512v-148.108c0-4.267 3.459-7.726 7.726-7.726s7.726 3.459 7.726 7.726v148.108z" fill="#d6a59d"/></g></g></g><path d="m302.558 299.809v46.167c-9.981 15.126-27.119 25.127-46.558 25.127s-36.587-10.002-46.558-25.127v-46.167c8.667-2.023 17.693-3.091 26.965-3.091h39.185c9.273 0 18.299 1.068 26.966 3.091z" fill="#fff6f2"/><path d="m302.554 299.814v11.486c-16.885-9.292-36.283-14.577-56.918-14.577h29.947c9.283 0 18.307 1.071 26.971 3.091z" fill="#ffe1da"/><g><path d="m335.599 512v-84.777c0-4.267 3.459-7.726 7.726-7.726s7.726 3.459 7.726 7.726v84.777z" fill="#094c66"/></g><g><path d="m160.946 512v-84.777c0-4.267 3.459-7.726 7.726-7.726s7.726 3.459 7.726 7.726v84.777z" fill="#094c66"/></g></g><g><path d="m280.942 270.985v44.37c0 13.77-11.172 24.942-24.942 24.942-13.78 0-24.953-11.172-24.953-24.942v-44.37z" fill="#ffcec0"/></g><path d="m280.942 270.985v21.626c-7.742 2.023-15.844 3.111-24.182 3.173h-.75c-8.615 0-16.974-1.078-24.963-3.122v-21.677z" fill="#fdb0a0"/></g></g><g><g><g><circle cx="162.567" cy="178.081" fill="#fdb0a0" r="31.213"/></g><g><circle cx="349.429" cy="178.081" fill="#fdb0a0" r="31.213"/></g><path d="m370.834 155.372c-11.363 13.804-23.581 20.542-24.487 21.036l-17.637 9.498-9.344-16.236c3.668-13.155 15.741-22.808 30.061-22.808 8.293.001 15.824 3.225 21.407 8.51z" fill="#f89f8e"/></g><g><path d="m336.572 135.466v58.199c0 44.437-35.534 81.25-79.971 81.584-44.781.323-81.186-35.868-81.186-80.573v-59.209c0-44.501 36.083-80.573 80.584-80.573 22.256 0 42.394 9.021 56.973 23.6 14.58 14.589 23.6 34.727 23.6 56.972z" fill="#ffcec0"/><path d="m336.57 135.469v48.408l-17.359-16.504c-1.937-2.174-18.636-18.945-76.244-23.498-24.096-1.906-43.803-11.62-56.979-28.114-2.102-2.627-3.966-5.336-5.635-8.097 11.323-30.802 40.92-52.766 75.647-52.766 22.252 0 42.392 9.014 56.969 23.591 14.587 14.598 23.601 34.728 23.601 56.98z" fill="#fdb0a0"/><g><g><path d="m255.079 234.139c-6.97 0-13.549-2.326-18.526-6.549-3.254-2.761-3.653-7.636-.892-10.89 2.761-3.253 7.637-3.653 10.89-.892 2.156 1.829 5.265 2.879 8.528 2.879 3.264 0 6.373-1.05 8.53-2.88 3.257-2.76 8.132-2.359 10.89.894 2.76 3.254 2.36 8.13-.894 10.89-4.977 4.223-11.557 6.548-18.526 6.548z" fill="#fdb0a0"/></g><g><g><g id="XMLID_335_"><path d="m294.532 171.84c-.016 0-.031 0-.047 0-4.267-.026-7.747-3.506-7.722-7.773.025-4.251 3.438-7.681 7.683-7.681h.047l.085.001c4.267.026 7.705 3.505 7.68 7.772-.026 4.252-3.48 7.681-7.726 7.681z" fill="#96756f"/></g></g><g><g id="XMLID_264_"><path d="m217.552 171.84c-4.268 0-7.768-3.459-7.768-7.726s3.416-7.726 7.684-7.726h.083c4.268 0 7.726 3.459 7.726 7.726s-3.457 7.726-7.725 7.726z" fill="#96756f"/></g></g></g><g><path d="m255.089 204.458c-.469 0-.944-.043-1.421-.132-9.726-1.807-16.198-10.887-14.733-20.671l3.985-26.647c.631-4.221 4.566-7.131 8.785-6.498 4.22.631 7.13 4.564 6.499 8.784l-3.987 26.648c-.225 1.511.774 2.912 2.275 3.191 4.195.78 6.965 4.813 6.185 9.008-.692 3.719-3.939 6.317-7.588 6.317z" fill="#fdb0a0"/></g></g></g></g></g><g><path d="m302.558 299.809s28.019 22.504 39.656 59.203c.693 2.186-.154 4.572-2.062 5.843l-4.012 2.672c-2.751 1.832-3.089 5.744-.693 8.021l7.536 7.161c1.85 1.758 2.134 4.605.668 6.693l-41.093 58.534z" fill="#3b93ba"/></g><g><path d="m209.442 299.809s-28.019 22.504-39.656 59.203c-.693 2.186.154 4.572 2.062 5.843l4.012 2.672c2.751 1.832 3.089 5.744.693 8.021l-7.536 7.161c-1.85 1.758-2.134 4.605-.667 6.693l41.093 58.534v-148.127z" fill="#3b93ba"/></g><path d="m199.828 72.592c0-21.052 11.718-51.667 11.718-51.667-10.028-.702-49.178 10.069-58.592 43.835-17.501 62.775 21.621 93.05 22.468 95.944 0-.001 24.406-49.006 24.406-88.112z" fill="#80635e"/><path d="m211.548 20.923s-11.723 30.617-11.723 51.674c0 39.106-24.405 88.111-24.405 88.111-.371-1.257-7.932-7.654-14.948-19.625 6.809-14.577 11.002-34.552 11.002-56.578 0-15.453-2.071-29.896-5.645-42.176 15.442-16.286 38.373-21.921 45.719-21.406z" fill="#6c524e"/><g><g><path d="m188.417 46.711s-10.599 73.382 56.173 78.657c76.531 6.045 91.983 32.901 91.983 32.901s30.547-16.457 33.166-52.661c7.423-102.594-103.186-105.608-120.107-105.608-27.783 0-61.215 10.809-61.215 46.711z" fill="#96756f"/></g><g><path d="m369.742 105.604c-2.627 36.211-33.172 52.663-33.172 52.663s-4.079-7.088-18.43-14.804c9.189-7.984 21.778-22.911 23.416-45.586 4.079-56.31-27.403-82.621-59.442-94.9 37.984 6.861 92.923 29.34 87.628 102.627z" fill="#80635e"/></g></g><g><g><path d="m336.576 118.649c-.064 0-.129-.001-.194-.003-4.266-.105-7.639-3.648-7.534-7.914 1.168-47.479-37.577-63.652-39.227-64.317-3.948-1.592-5.877-6.081-4.301-10.034s6.042-5.892 9.999-4.33c.525.207 12.988 5.211 25.171 17.408 11.275 11.287 24.556 31.146 23.807 61.653-.104 4.202-3.542 7.537-7.721 7.537z" fill="#6c524e"/></g></g></g></svg>