<svg id="Capa_1" enable-background="new 0 0 512.029 512.029" height="512" viewBox="0 0 512.029 512.029" width="512" xmlns="http://www.w3.org/2000/svg"><g id="XMLID_1493_"><g id="XMLID_2038_"><path id="XMLID_2039_" d="m136.949 172.94 40.67-23.481c18.24-10.531 24.489-33.853 13.958-52.093l-39.438-68.309c-10.53-18.239-33.853-24.489-52.093-13.958l-13.833 7.987c-9.196 5.309-17.627 11.434-25.259 18.227z" fill="#fff"/></g><g id="XMLID_2076_"><g id="XMLID_2077_"><path id="XMLID_2078_" d="m100.046 15.099-13.833 7.987c-72.894 42.085-97.869 135.293-55.784 208.186l112.286 194.484c42.085 72.893 135.293 97.868 208.186 55.783l13.833-7.987c18.239-10.531 24.489-33.853 13.958-52.093l-39.022-67.588c-10.531-18.24-33.853-24.489-52.093-13.958l-40.717 23.508c-8.749 5.051-19.937 2.054-24.988-6.696l-91.667-158.771c-5.051-8.749-2.054-19.937 6.696-24.988l40.717-23.508c18.24-10.531 24.489-33.853 13.958-52.093l-39.438-68.309c-10.53-18.238-33.853-24.487-52.092-13.957z" fill="#ff9171"/></g></g><path id="XMLID_2044_" d="m339.671 353.873c-10.531-18.24-33.853-24.489-52.093-13.958l-40.683 23.488 75.577 130.903c9.704-3.214 19.228-7.454 28.429-12.766l13.833-7.987c18.239-10.531 24.489-33.853 13.958-52.093z" fill="#fff"/><g id="XMLID_2041_"><path id="XMLID_2042_" d="m136.949 172.94 40.67-23.481c18.24-10.531 24.489-33.853 13.958-52.093l-39.438-68.309c-10.53-18.239-33.853-24.489-52.093-13.958l-13.833 7.987c-9.196 5.309-17.627 11.434-25.259 18.227z" fill="#fff"/></g><g id="XMLID_371_"><path id="XMLID_372_" d="m422.454 165.9c-5.144-2.007-10.943.537-12.951 5.682l-31.208 80c-2.007 5.145.537 10.943 5.682 12.951 1.194.466 2.423.686 3.632.686 4 0 7.777-2.417 9.319-6.368l31.208-80c2.007-5.146-.537-10.944-5.682-12.951z"/><path id="XMLID_373_" d="m510.34 170.488c-1.85-2.811-4.989-4.504-8.354-4.504h-43.166c-5.523 0-10 4.477-10 10s4.477 10 10 10h27.964l-28.474 66.041c-2.187 5.071.152 10.955 5.224 13.142 1.29.557 2.633.82 3.954.82 3.872 0 7.558-2.262 9.188-6.043l34.492-80c1.333-3.092 1.022-6.644-.828-9.456z"/><path id="XMLID_376_" d="m304.308 240.715h29.261v15.269c0 5.523 4.477 10 10 10s10-4.477 10-10v-15.269h.012c5.523 0 10-4.477 10-10s-4.477-10-10-10l-.012-39.868c0-6.996-4.391-13.191-10.677-15.064-4.878-1.453-11.789-.406-16.56 6.889-3.801 5.813-27.972 48.275-30.716 53.098-1.761 3.096-1.743 6.894.048 9.972 1.79 3.079 5.082 4.973 8.644 4.973zm29.261-40.966v20.965h-12.044c4.126-7.215 8.388-14.639 12.044-20.965z"/><path id="XMLID_377_" d="m219.277 201.982c5.417 1.062 10.675-2.466 11.74-7.885.923-4.701 5.082-8.113 9.888-8.113 5.363 0 9.761 4.211 10.062 9.5-.331 2.15-.903 4.154-1.707 5.968-1.212 2.737-2.962 5.747-5.2 8.945-24.629 35.191-27.773 39.633-27.895 39.805-2.162 3.051-2.44 7.053-.723 10.374s5.143 5.407 8.882 5.407h39.984c5.523 0 10-4.477 10-10s-4.477-10-10-10h-20.751c4.027-5.747 9.49-13.549 16.888-24.119 2.978-4.255 5.367-8.398 7.102-12.314 1.673-3.777 2.801-7.889 3.355-12.222.054-.42.081-.843.081-1.267 0-16.585-13.493-30.078-30.078-30.078-14.34 0-26.752 10.202-29.513 24.259-1.065 5.42 2.465 10.676 7.885 11.74z"/><path id="XMLID_993_" d="m348.331 348.873c-6.428-11.135-16.808-19.1-29.227-22.427-12.42-3.329-25.391-1.621-36.526 4.809l-40.717 23.508c-1.919 1.108-4.153 1.401-6.293.828s-3.928-1.946-5.036-3.864l-91.666-158.772c-1.107-1.919-1.401-4.153-.828-6.293s1.945-3.928 3.863-5.035l40.717-23.508c22.985-13.27 30.889-42.767 17.619-65.753l-39.438-68.309c-13.27-22.986-42.767-30.887-65.753-17.618l-13.833 7.987c-77.552 44.774-104.219 144.294-59.444 221.846l33.689 58.351c2.76 4.783 8.877 6.421 13.66 3.66s6.422-8.877 3.66-13.66l-33.689-58.351c-32.128-55.648-22.298-124.191 19.599-168.775l65.463 113.385c-2.514 3.068-4.374 6.659-5.431 10.605-1.956 7.3-.952 14.924 2.827 21.469l91.666 158.772c3.778 6.544 9.879 11.226 17.179 13.182 3.945 1.057 7.985 1.242 11.9.599l65.077 112.717c-22.648 5.367-46.41 5.075-69.525-1.119-36.741-9.845-67.45-33.408-86.468-66.35l-33.599-58.195c-2.761-4.784-8.877-6.422-13.66-3.66-4.783 2.761-6.422 8.877-3.66 13.66l33.599 58.195c21.689 37.568 56.711 64.44 98.612 75.668 13.992 3.749 28.19 5.604 42.297 5.604 28.14 0 55.914-7.381 80.937-21.828l13.834-7.987c11.135-6.429 19.099-16.809 22.427-29.228s1.62-25.391-4.809-36.525zm-257.118-317.127 13.833-7.987c13.436-7.756 30.677-3.137 38.433 10.298l39.439 68.309c7.756 13.435 3.137 30.676-10.298 38.433l-32.057 18.508-66.795-115.691c5.437-4.319 11.254-8.296 17.445-11.87zm281.63 416.063c-1.945 7.259-6.601 13.326-13.108 17.084l-13.834 7.987c-6.156 3.554-12.502 6.62-18.991 9.192l-66.389-114.99 32.057-18.508c6.509-3.757 14.091-4.755 21.349-2.811 7.259 1.945 13.326 6.601 17.083 13.109l39.022 67.588c3.758 6.509 4.756 14.091 2.811 21.349z"/><path id="XMLID_997_" d="m86.725 318.534c-2.64 0-5.21 1.07-7.07 2.93s-2.93 4.43-2.93 7.07c0 2.63 1.07 5.21 2.93 7.07s4.43 2.93 7.07 2.93c2.63 0 5.21-1.07 7.07-2.93s2.93-4.44 2.93-7.07c0-2.64-1.07-5.21-2.93-7.07-1.86-1.861-4.44-2.93-7.07-2.93z"/></g></g></svg>