<svg id="Capa_1" enable-background="new 0 0 512.377 512.377" height="512" viewBox="0 0 512.377 512.377" width="512" xmlns="http://www.w3.org/2000/svg"><g><g><g><path d="m290.66 297.442 53.453 13.859c16.756 4.344 28.457 19.466 28.457 36.776v8.051 49.111h-232.763v-49.111-8.051c0-17.31 11.701-32.432 28.457-36.776l53.453-13.859 25.189-4.589h29.097z" fill="#fee45a"/></g><path d="m262.753 292.853h-15.846l-25.189 4.589-53.453 13.859c-16.756 4.344-28.457 19.466-28.457 36.776v8.051 49.112h50.382v-34.827-8.051c0-17.31 11.701-32.432 28.458-36.776l44.106-11.435v-21.298z" fill="#fedf30"/><path d="m373.941 124.252c0-64.48-52.272-116.752-116.752-116.752-64.48 0-116.752 52.272-116.752 116.752v52.175l233.505-3.676v-48.499z" fill="#918291"/><path d="m371.95 221.257c10.138 0 18.357-8.219 18.357-18.357v-25.405c0-10.138-8.219-18.357-18.357-18.357h-65.379v61.681z" fill="#b5adb6"/><g><path d="m159.943 216.973c-12.071 0-21.857-9.786-21.857-21.857v-23.351c0-6.973 5.653-12.626 12.626-12.626h60.055v57.834z" fill="#b5adb6"/><path d="m290.66 297.442c0 14.516-11.767 26.283-26.283 26.283h-16.377c-14.516 0-26.283-11.767-26.283-26.283v-80.469h68.942v80.469z" fill="#ffe5c2"/><path d="m256.189 290.861c12.065 0 23.661-2.036 34.471-5.774v-28.894h-50.052v7.32h-18.89v33.928c0 14.516 11.767 26.283 26.283 26.283h16.376c1.359 0 2.694-.103 3.997-.302-12.619-1.925-22.286-12.824-22.286-25.981 0-3.774 3.136-6.761 6.908-6.635 1.06.037 2.124.055 3.193.055z" fill="#fed2a4"/><path d="m398.338 356.128h-284.299c-8.884 0-15.856 7.618-15.072 16.467l10.504 118.488c.692 7.808 7.233 13.795 15.072 13.795h263.291c7.839 0 14.38-5.987 15.072-13.795l10.504-118.488c.785-8.85-6.188-16.467-15.072-16.467z" fill="#a6e7f0"/><path d="m183.142 479.614c-17.5 0-32.103-13.366-33.649-30.798l-8.217-92.689h-27.237c-8.884 0-15.856 7.618-15.072 16.467l10.504 118.488c.692 7.808 7.233 13.795 15.072 13.795h263.291c7.839 0 14.38-5.987 15.072-13.795l1.017-11.469h-220.781z" fill="#6bd9e7"/><circle cx="349.15" cy="273.759" fill="#b5adb6" r="14.236"/><path d="m234.524 394.488c-25.909 0-46.912 21.003-46.912 46.912v13.125c0 5.206 4.22 9.426 9.426 9.426h29.939c3.202 0 5.798-2.596 5.798-5.798v-6.371c0-1.531-.606-3-1.685-4.087l-.597-.601c-3.486-3.508-3.221-9.248.572-12.421 1.518-1.27 3.434-1.965 5.413-1.965h40.421c1.979 0 3.895.696 5.413 1.965 3.794 3.173 4.058 8.913.572 12.421l-.597.601c-1.079 1.086-1.685 2.555-1.685 4.087v6.371c0 3.202 2.596 5.798 5.798 5.798h29.939c5.206 0 9.426-4.22 9.426-9.426v-13.125c0-25.909-21.003-46.912-46.912-46.912z" fill="#faf7f7"/></g><path d="m342.436 137.178-6.614-.432c-6.341-.414-12.389-2.826-17.275-6.89l-24.329-20.235c-1.434-1.193-3.487-1.286-5.023-.228-26.558 18.287-58.043 28.079-90.288 28.079h-28.614c-2.667 0-4.828 2.162-4.828 4.828v26.652l6.671-5.666 8.74 51.232s46.711 45.506 49.424 45c2.712-.506 32.473 12.56 32.473 12.56l34.201-5.878c29.641-14.931 49.976-45.632 49.976-81.086v-43.12c-.001-2.543-1.975-4.65-4.514-4.816z" fill="#ffe5c2"/><path d="m342.418 137.181-6.614-.432c-6.341-.414-12.389-2.826-17.275-6.89l-26.316-21.887c-1.207-1.004-3.037-.145-3.037 1.424-26.558 18.287-58.043 28.079-90.288 28.079h-28.614c-2.666 0-4.828 2.162-4.828 4.828v41.728c0 50.08 40.114 91.531 90.194 91.828 14.878.088 28.915-3.396 41.333-9.658-4.496.685-9.086 1.028-13.774 1.028-50.116 0-90.742-40.627-90.742-90.742v-5.432c0-1.844 1.495-3.338 3.338-3.338 33.866 0 68.092-8.154 95.518-28.021 1.545-1.119 3.645-1.044 5.105.17l24.329 20.235c4.886 4.064 10.933 6.475 17.275 6.89 0 0 8.239.775 8.909 1.208v-26.2c0-2.544-1.974-4.652-4.513-4.818z" fill="#fed2a4"/></g><g><path d="m415.032 355.979c-4.276-4.672-10.361-7.351-16.694-7.351h-18.268v-.55c0-20.727-14.013-38.835-34.076-44.036l-47.835-12.402v-17.708c19.94-9.461 36.205-25.443 46.03-45.175h22.251v7.375c0 6.753-2.47 13.252-6.954 18.301l-.128.144c-3.046-1.628-6.521-2.554-10.209-2.554-11.985 0-21.736 9.751-21.736 21.736s9.751 21.736 21.736 21.736 21.736-9.751 21.736-21.736c0-2.785-.532-5.446-1.491-7.895l1.306-1.47c6.925-7.796 10.739-17.834 10.739-28.263v-9.187c9.574-3.792 16.366-13.137 16.366-24.044v-25.405c0-10.907-6.792-20.252-16.366-24.044v-29.198c0-19.173-4.259-37.572-12.658-54.683-1.823-3.718-6.319-5.253-10.037-3.428-3.719 1.825-5.253 6.319-3.428 10.037 7.381 15.037 11.123 31.211 11.123 48.074v27.386h-12.01v-9.64c0-6.477-5.063-11.881-11.524-12.302l-6.614-.432c-4.791-.313-9.275-2.102-12.968-5.171l-24.33-20.235c-4-3.328-9.788-3.59-14.07-.639-25.422 17.504-55.172 26.756-86.035 26.756h-28.614c-6.798 0-12.328 5.53-12.328 12.328v9.335h-7.235c-.944 0-1.865.088-2.774.214v-27.6c0-60.243 49.01-109.253 109.252-109.253 30.964 0 60.602 13.228 81.313 36.292 2.768 3.081 7.508 3.338 10.591.569 3.082-2.767 3.337-7.509.569-10.591-23.552-26.228-57.257-41.27-92.473-41.27-68.513 0-124.252 55.739-124.252 124.252v38.095c-1.496 2.812-2.352 6.016-2.352 9.417v23.351c0 16.188 13.17 29.357 29.357 29.357h6.227c2.101 4.801 4.58 9.452 7.452 13.898 2.249 3.48 6.893 4.477 10.37 2.229 3.479-2.248 4.478-6.891 2.229-10.37-8.685-13.439-13.274-29.039-13.274-45.111v-40.143h25.942c33.068 0 64.976-9.667 92.443-27.98l22.401 18.631c6.145 5.11 13.607 8.086 21.581 8.606l4.116.269v40.617c0 45.9-37.342 83.242-83.242 83.242-18.188 0-35.463-5.76-49.959-16.656-3.312-2.489-8.014-1.822-10.502 1.489-2.489 3.311-1.822 8.013 1.489 10.501 5.367 4.034 11.057 7.471 17.001 10.29v17.653l-47.835 12.402c-20.063 5.201-34.076 23.31-34.076 44.036v.55h-18.268c-6.333 0-12.418 2.679-16.694 7.351-4.275 4.672-6.408 10.97-5.849 17.278l10.506 118.491c1.043 11.762 10.734 20.632 22.543 20.632h263.291c11.809 0 21.5-8.87 22.543-20.633l1.991-22.466c.366-4.126-2.683-7.767-6.809-8.133-4.115-.36-7.768 2.683-8.133 6.809l-1.991 22.466c-.352 3.966-3.62 6.958-7.602 6.958h-263.29c-3.981 0-7.25-2.991-7.602-6.957l-10.504-118.488c-.191-2.159.509-4.228 1.973-5.826 1.463-1.599 3.462-2.479 5.629-2.479h284.299c2.167 0 4.166.88 5.629 2.479 1.464 1.599 2.164 3.667 1.973 5.826l-5.688 64.17c-.366 4.126 2.683 7.767 6.809 8.133 4.121.369 7.768-2.682 8.133-6.809l5.688-64.17c.559-6.309-1.574-12.607-5.85-17.278zm-255.089-146.506c-7.917 0-14.357-6.44-14.357-14.357v-23.351c0-2.827 2.3-5.126 5.126-5.126h7.235v18.48c0 8.278 1.033 16.451 3.05 24.354zm189.207 71.023c-3.715 0-6.736-3.022-6.736-6.736s3.021-6.736 6.736-6.736 6.736 3.022 6.736 6.736-3.021 6.736-6.736 6.736zm22.8-113.857c5.986 0 10.856 4.87 10.856 10.856v25.405c0 5.986-4.87 10.856-10.856 10.856h-21.781c2.768-9.065 4.262-18.679 4.262-28.638v-18.48h17.519zm-115.761 116.722c9.349 0 18.398-1.314 26.971-3.765v17.846c0 10.357-8.426 18.783-18.782 18.783h-16.378c-10.356 0-18.782-8.426-18.782-18.783v-17.817c8.674 2.466 17.722 3.736 26.971 3.736zm-108.882 64.716c0-13.893 9.393-26.03 22.84-29.517l45.397-11.77c4.066 14.093 17.072 24.434 32.456 24.434h16.377c15.385 0 28.391-10.341 32.456-24.434l45.397 11.77c13.447 3.487 22.84 15.624 22.84 29.517v.55h-217.763z"/><path d="m276.967 442.409c-2.492 2.508-3.864 5.837-3.864 9.373v6.371c0 7.333 5.966 13.298 13.298 13.298h29.938c9.333 0 16.927-7.593 16.927-16.926v-13.125c0-30.003-24.409-54.412-54.412-54.412h-44.33c-30.003 0-54.412 24.409-54.412 54.412v13.125c0 9.333 7.594 16.926 16.927 16.926h29.938c7.332 0 13.298-5.965 13.298-13.298v-6.371c0-3.536-1.372-6.865-3.864-9.373l-.599-.603c-.192-.194-.284-.431-.271-.704s.126-.501.335-.676c.169-.141.383-.219.603-.219h40.421c.22 0 .434.078.602.218.21.176.323.403.336.677.013.273-.079.51-.272.705zm-.067-17.201h-40.422c-3.73 0-7.361 1.318-10.225 3.711-3.416 2.857-5.492 7.046-5.697 11.494-.204 4.447 1.479 8.809 4.616 11.966l.103.104v3.967h-28.236c-1.063 0-1.927-.864-1.927-1.926v-13.124c0-21.732 17.681-39.412 39.412-39.412h44.33c21.731 0 39.412 17.68 39.412 39.412v13.125c0 1.062-.864 1.926-1.927 1.926h-28.236v-3.967l.102-.103c3.139-3.158 4.821-7.52 4.617-11.967-.205-4.448-2.281-8.637-5.698-11.495-2.863-2.393-6.494-3.711-10.224-3.711z"/></g></g></svg>